HIERARCHY
ROOT hip
{
  OFFSET 0 0 0
  CHANNELS 6 Xposition Yposition Zposition Zrotation Yrotation Xrotation
  JOINT abdomen
  {
    OFFSET 0 20.6881 -0.73152
    CHANNELS 3 Zrotation Xrotation Yrotation
    JOINT chest
    {
      OFFSET 0 11.7043 -0.48768
      CHANNELS 3 Zrotation Xrotation Yrotation
      JOINT neck
      {
        OFFSET 0 22.1894 -2.19456
        CHANNELS 3 Zrotation Xrotation Yrotation
        JOINT head
        {
          OFFSET -0.24384 7.07133 1.2192
          CHANNELS 3 Zrotation Xrotation Yrotation
          JOINT leftEye
          {
            OFFSET 4.14528 8.04674 8.04672
            CHANNELS 3 Zrotation Xrotation Yrotation
            End Site
            {
              OFFSET 1 0 0
            }
          }
          JOINT rightEye
          {
            OFFSET -3.6576 8.04674 8.04672
            CHANNELS 3 Zrotation Xrotation Yrotation
            End Site
            {
              OFFSET 1 0 0
            }
          }
        }
      }
      JOINT rCollar
      {
        OFFSET -2.68224 19.2634 -4.8768
        CHANNELS 3 Zrotation Xrotation Yrotation
        JOINT rShldr
        {
          OFFSET -8.77824 -1.95073 1.46304
          CHANNELS 3 Zrotation Xrotation Yrotation
          JOINT rForeArm
          {
            OFFSET -28.1742 -1.7115 0.48768
            CHANNELS 3 Zrotation Xrotation Yrotation
            JOINT rHand
            {
              OFFSET -22.5879 0.773209 7.07136
              CHANNELS 3 Zrotation Xrotation Yrotation
              JOINT rThumb1
              {
                OFFSET -1.2192 -0.487915 3.41376
                CHANNELS 3 Zrotation Xrotation Yrotation
                JOINT rThumb2
                {
                  OFFSET -3.37035 -0.52449 3.41376
                  CHANNELS 3 Zrotation Xrotation Yrotation
                  End Site
                  {
                    OFFSET -1.78271 -1.18214 1.43049
                  }
                }
              }
              JOINT rIndex1
              {
                OFFSET -7.75947 0.938293 5.60832
                CHANNELS 3 Zrotation Xrotation Yrotation
                JOINT rIndex2
                {
                  OFFSET -2.54057 -0.884171 1.56538
                  CHANNELS 3 Zrotation Xrotation Yrotation
                  End Site
                  {
                    OFFSET -1.62519 -0.234802 1.16502
                  }
                }
              }
              JOINT rMid1
              {
                OFFSET -8.24714 1.18213 3.41376
                CHANNELS 3 Zrotation Xrotation Yrotation
                JOINT rMid2
                {
                  OFFSET -3.10165 -0.590103 1.0647
                  CHANNELS 3 Zrotation Xrotation Yrotation
                  End Site
                  {
                    OFFSET -2.48547 -0.328903 0.83742
                  }
                }
              }
              JOINT rRing1
              {
                OFFSET -8.82822 0.546677 1.51678
                CHANNELS 3 Zrotation Xrotation Yrotation
                JOINT rRing2
                {
                  OFFSET -2.60934 -0.819778 -0.0198488
                  CHANNELS 3 Zrotation Xrotation Yrotation
                  End Site
                  {
                    OFFSET -2.33842 -0.294052 0.168128
                  }
                }
              }
              JOINT rPinky1
              {
                OFFSET -8.27202 -0.0477905 -0.4584
                CHANNELS 3 Zrotation Xrotation Yrotation
                JOINT rPinky2
                {
                  OFFSET -1.82734 -0.647385 -0.700984
                  CHANNELS 3 Zrotation Xrotation Yrotation
                  End Site
                  {
                    OFFSET -1.69225 -0.51767 -0.607171
                  }
                }
              }
            }
          }
        }
      }
      JOINT lCollar
      {
        OFFSET 2.68224 19.2634 -4.8768
        CHANNELS 3 Zrotation Xrotation Yrotation
        JOINT lShldr
        {
          OFFSET 8.77824 -1.95073 1.46304
          CHANNELS 3 Zrotation Xrotation Yrotation
          JOINT lForeArm
          {
            OFFSET 28.1742 -1.7115 0.48768
            CHANNELS 3 Zrotation Xrotation Yrotation
            JOINT lHand
            {
              OFFSET 22.5879 0.773209 7.07136
              CHANNELS 3 Zrotation Xrotation Yrotation
              JOINT lThumb1
              {
                OFFSET 1.2192 -0.487915 3.41376
                CHANNELS 3 Zrotation Xrotation Yrotation
                JOINT lThumb2
                {
                  OFFSET 3.37035 -0.52449 3.41376
                  CHANNELS 3 Zrotation Xrotation Yrotation
                  End Site
                  {
                    OFFSET 1.78271 -1.18214 1.43049
                  }
                }
              }
              JOINT lIndex1
              {
                OFFSET 7.75947 0.938293 5.60832
                CHANNELS 3 Zrotation Xrotation Yrotation
                JOINT lIndex2
                {
                  OFFSET 2.54057 -0.884171 1.56538
                  CHANNELS 3 Zrotation Xrotation Yrotation
                  End Site
                  {
                    OFFSET 1.62519 -0.234802 1.16502
                  }
                }
              }
              JOINT lMid1
              {
                OFFSET 8.24714 1.18213 3.41376
                CHANNELS 3 Zrotation Xrotation Yrotation
                JOINT lMid2
                {
                  OFFSET 3.10165 -0.590103 1.0647
                  CHANNELS 3 Zrotation Xrotation Yrotation
                  End Site
                  {
                    OFFSET 2.48547 -0.328903 0.83742
                  }
                }
              }
              JOINT lRing1
              {
                OFFSET 8.82822 0.546677 1.51678
                CHANNELS 3 Zrotation Xrotation Yrotation
                JOINT lRing2
                {
                  OFFSET 2.60934 -0.819778 -0.0198488
                  CHANNELS 3 Zrotation Xrotation Yrotation
                  End Site
                  {
                    OFFSET 2.33842 -0.294052 0.168128
                  }
                }
              }
              JOINT lPinky1
              {
                OFFSET 8.27202 -0.0477905 -0.4584
                CHANNELS 3 Zrotation Xrotation Yrotation
                JOINT lPinky2
                {
                  OFFSET 1.82734 -0.647385 -0.700984
                  CHANNELS 3 Zrotation Xrotation Yrotation
                  End Site
                  {
                    OFFSET 1.69225 -0.51767 -0.607171
                  }
                }
              }
            }
          }
        }
      }
    }
  }
  JOINT rButtock
  {
    OFFSET -8.77824 4.35084 1.2192
    CHANNELS 3 Zrotation Xrotation Yrotation
    JOINT rThigh
    {
      OFFSET 0 -1.70687 -2.19456
      CHANNELS 3 Zrotation Xrotation Yrotation
      JOINT rShin
      {
        OFFSET 0 -36.8199 0.73152
        CHANNELS 3 Zrotation Xrotation Yrotation
        JOINT rFoot
        {
          OFFSET 0.73152 -45.1104 -5.12064
          CHANNELS 3 Zrotation Xrotation Yrotation
          End Site
          {
            OFFSET -1.1221 -3.69964 12.103
          }
        }
      }
    }
  }
  JOINT lButtock
  {
    OFFSET 8.77824 4.35084 1.2192
    CHANNELS 3 Zrotation Xrotation Yrotation
    JOINT lThigh
    {
      OFFSET 0 -1.70687 -2.19456
      CHANNELS 3 Zrotation Xrotation Yrotation
      JOINT lShin
      {
        OFFSET 0 -36.8199 0.73152
        CHANNELS 3 Zrotation Xrotation Yrotation
        JOINT lFoot
        {
          OFFSET -0.73152 -45.1104 -5.12064
          CHANNELS 3 Zrotation Xrotation Yrotation
          End Site
          {
            OFFSET 1.1221 -3.69964 12.103
          }
        }
      }
    }
  }
}
MOTION
Frames:	5
Frame Time:	0.00833333
-1.31029 87.6981 20.3702 -402.263 -75.7471 408.251 9.06197 -3.54775 10.426 -10.2045 -5.47974 2.37297 -17.0598 2.97116 -11.452 3.98097 -17.2477 -18.1405 -0.0 0.0 0.0 -0.0 0.0 0.0 -1.84476e-13 -1.41177e-12 -7.30037e-14 2.12776 -58.4737 45.9784 -27.6266 -28.7199 65.2094 -0.265692 14.518 2.08566 -3.40171e-09 1.35398e-09 -6.98984e-10 -5.88771e-09 2.35934e-09 -1.17884e-09 -3.4017e-09 1.35397e-09 -6.98994e-10 7.73091 5.47488 0.417314 -3.40171e-09 1.35397e-09 -6.98981e-10 2.90554 0.965183 0.102902 -3.40171e-09 1.35397e-09 -6.98987e-10 10.2786 0.731801 0.0259123 -3.40171e-09 1.35398e-09 -6.98981e-10 2.22167 -0.733487 -0.20892 -1.84481e-13 -1.41177e-12 -7.32521e-14 -70.6002 2.53823 19.3219 16.6584 -9.31359 -31.0752 0.48052 19.3143 -2.82331 -1.41016e-10 -1.7819e-09 -3.84882e-09 -2.99634e-10 -3.08366e-09 -6.65605e-09 -1.41017e-10 -1.7819e-09 -3.8488e-09 -7.73091 5.47488 -0.417314 -1.41016e-10 -1.7819e-09 -3.84882e-09 -2.90554 0.965183 -0.102902 -1.41026e-10 -1.7819e-09 -3.84882e-09 -10.2786 0.731801 -0.0259123 -1.41012e-10 -1.7819e-09 -3.84883e-09 -2.22167 -0.733487 0.20892 -2.03217e-16 0.0 -3.88251e-19 16.5635 -6.60167 -5.60923 -0.0265074 13.3129 0.257226 -3.43688 -8.76161 -13.5252 2.03217e-16 0.0 3.88251e-19 14.5031 -30.245 -5.37714 0.23345 34.0139 -0.511382 0.495916 -6.65524 0.162595
-1.83642 87.7068 20.3354 -403.028 -75.9476 409.111 9.08629 -3.62153 10.5121 -10.3468 -5.47598 2.38404 -17.1058 3.0686 -11.5656 4.20501 -17.5819 -18.339 -0.0 0.0 0.0 -0.0 0.0 0.0 -2.44353e-13 -1.30362e-12 -1.24785e-15 2.76852 -58.7466 47.6525 -26.9017 -26.2072 60.9716 -0.260948 14.3825 2.0654 -1.29531e-09 3.37331e-10 -3.29118e-11 -2.23839e-09 5.90584e-10 -5.14475e-11 -1.29531e-09 3.37326e-10 -3.29233e-11 7.73091 5.47488 0.417314 -1.29531e-09 3.37329e-10 -3.29089e-11 2.90554 0.965183 0.102902 -1.29531e-09 3.37329e-10 -3.29136e-11 10.2786 0.731801 0.0259123 -1.29532e-09 3.37336e-10 -3.29066e-11 2.22167 -0.733487 -0.20892 -2.44376e-13 -1.30361e-12 -1.50758e-15 -70.8434 3.46661 19.1972 17.0181 -9.66977 -31.8494 0.463701 18.9895 -2.77209 5.8543e-10 3.07671e-10 -1.6096e-09 9.85547e-10 5.14622e-10 -2.79348e-09 5.85429e-10 3.07679e-10 -1.60957e-09 -7.73091 5.47488 -0.417314 5.8543e-10 3.0767e-10 -1.6096e-09 -2.90554 0.965183 -0.102902 5.8542e-10 3.0767e-10 -1.6096e-09 -10.2786 0.731801 -0.0259123 5.85434e-10 3.07675e-10 -1.60961e-09 -2.22167 -0.733487 0.20892 -2.03217e-16 0.0 -3.88251e-19 16.6133 -6.24872 -5.43226 -0.0275936 13.1433 0.253113 -3.46069 -8.8569 -13.4677 2.03217e-16 0.0 3.88251e-19 14.3069 -30.5273 -5.25342 0.210202 32.4295 -0.465714 0.571655 -6.50992 0.532575
-2.36398 87.7183 20.296 -403.951 -76.1402 410.132 9.13466 -3.69806 10.5969 -10.5076 -5.47328 2.39346 -17.1349 3.15899 -11.6788 4.41626 -17.8831 -18.5405 -0.0 0.0 0.0 -0.0 0.0 0.0 -3.17639e-13 -9.78759e-13 1.30129e-13 3.46331 -59.0753 49.4439 -26.0076 -23.5769 56.4568 -0.25607 14.2338 2.04327 2.14693e-09 -1.20537e-09 1.06866e-09 3.7255e-09 -2.09538e-09 1.81502e-09 2.14693e-09 -1.20537e-09 1.06864e-09 7.73091 5.47488 0.417314 2.14693e-09 -1.20537e-09 1.06866e-09 2.90554 0.965183 0.102902 2.14693e-09 -1.20537e-09 1.06866e-09 10.2786 0.731801 0.0259123 2.14692e-09 -1.20537e-09 1.06867e-09 2.22167 -0.733487 -0.20892 -3.17698e-13 -9.78724e-13 1.29859e-13 -71.0527 4.38716 19.1153 17.3827 -10.0396 -32.6458 0.447229 18.6654 -2.72118 1.67365e-09 3.61358e-09 2.24346e-09 2.91816e-09 6.2088e-09 3.85523e-09 1.67365e-09 3.61359e-09 2.24349e-09 -7.73091 5.47488 -0.417314 1.67365e-09 3.61357e-09 2.24346e-09 -2.90554 0.965183 -0.102902 1.67364e-09 3.61357e-09 2.24346e-09 -10.2786 0.731801 -0.0259123 1.67365e-09 3.61358e-09 2.24345e-09 -2.22167 -0.733487 0.20892 -2.03217e-16 0.0 -3.88251e-19 16.6582 -5.90756 -5.28866 -0.029121 12.9993 0.247415 -3.47103 -8.95883 -13.3429 2.03217e-16 0.0 3.88251e-19 14.156 -30.7741 -5.098 0.188574 30.7873 -0.417934 0.639426 -6.25481 0.886978
-2.89662 87.7309 20.2511 -405.054 -76.3232 411.332 9.20663 -3.78008 10.6889 -10.6765 -5.46969 2.40434 -17.1538 3.25628 -11.788 4.62061 -18.1826 -18.7384 -0.0 0.0 0.0 -0.0 0.0 0.0 -3.70052e-13 -5.75511e-13 2.58525e-13 4.2438 -59.4324 51.3276 -24.8475 -20.8046 51.9943 -0.247216 13.9887 2.00664 5.48492e-09 -2.60236e-09 2.16712e-09 9.50891e-09 -4.52883e-09 3.67801e-09 5.48492e-09 -2.60235e-09 2.1671e-09 7.73091 5.47488 0.417314 5.48492e-09 -2.60236e-09 2.16712e-09 2.90554 0.965183 0.102902 5.48492e-09 -2.60236e-09 2.16712e-09 10.2786 0.731801 0.0259123 5.48491e-09 -2.60235e-09 2.16713e-09 2.22167 -0.733487 -0.20892 -3.70147e-13 -5.75459e-13 2.58243e-13 -71.2279 5.26832 19.0651 17.7425 -10.4133 -33.4432 0.431684 18.3526 -2.67222 2.63975e-09 6.74773e-09 6.00932e-09 4.63889e-09 1.16091e-08 1.03551e-08 2.63975e-09 6.74774e-09 6.00935e-09 -7.73091 5.47488 -0.417314 2.63975e-09 6.74772e-09 6.00933e-09 -2.90554 0.965183 -0.102902 2.63974e-09 6.74772e-09 6.00932e-09 -10.2786 0.731801 -0.0259123 2.63975e-09 6.74773e-09 6.00931e-09 -2.22167 -0.733487 0.20892 -2.03217e-16 0.0 -3.88251e-19 16.706 -5.57642 -5.16304 -0.0310553 12.8812 0.240462 -3.465 -9.05327 -13.1581 2.03217e-16 0.0 3.88251e-19 14.054 -30.9888 -4.92127 0.167962 29.1173 -0.368755 0.695902 -5.96147 1.20908
-3.43546 87.7435 20.2004 -406.344 -76.4989 412.72 9.30187 -3.87032 10.7966 -10.8432 -5.46327 2.41978 -17.1692 3.3744 -11.8895 4.82368 -18.5118 -18.9268 -0.0 0.0 0.0 -0.0 0.0 0.0 -3.67308e-13 -2.32208e-13 3.21335e-13 5.13494 -59.7928 53.2723 -23.4394 -18.0852 47.8821 -0.23109 13.5636 1.94304 7.27855e-09 -3.18184e-09 2.82387e-09 1.26168e-08 -5.54e-09 4.79495e-09 7.27856e-09 -3.18184e-09 2.82385e-09 7.73091 5.47488 0.417314 7.27855e-09 -3.18184e-09 2.82387e-09 2.90554 0.965183 0.102902 7.27856e-09 -3.18184e-09 2.82387e-09 10.2786 0.731801 0.0259123 7.27854e-09 -3.18184e-09 2.82388e-09 2.22167 -0.733487 -0.20892 -3.67425e-13 -2.32153e-13 3.21037e-13 -71.368 6.07875 19.0347 18.0888 -10.7824 -34.2196 0.41757 18.0615 -2.62686 2.99982e-09 8.32204e-09 7.98696e-09 5.28839e-09 1.43258e-08 1.37712e-08 2.99982e-09 8.32205e-09 7.98699e-09 -7.73091 5.47488 -0.417314 2.99982e-09 8.32204e-09 7.98696e-09 -2.90554 0.965183 -0.102902 2.99982e-09 8.32204e-09 7.98696e-09 -10.2786 0.731801 -0.0259123 2.99983e-09 8.32204e-09 7.98695e-09 -2.22167 -0.733487 0.20892 -2.03217e-16 0.0 -3.88251e-19 16.7641 -5.25351 -5.0401 -0.0333556 12.7891 0.232581 -3.43997 -9.12603 -12.9207 2.03217e-16 0.0 3.88251e-19 14.0045 -31.1747 -4.73376 0.147555 27.4496 -0.318747 0.73986 -5.70148 1.48236
